<svg version="1.1" xmlns="http://www.w3.org/2000/svg" xmlns:xlink="http://www.w3.org/1999/xlink" x="0px" y="0px" viewBox="0 0 1122 1122" style="enable-background:new 0 0 1122 1122;" xml:space="preserve">
<g id="Background">
	
</g>
<g id="Object">
	<g>
		
		<g>
			<linearGradient id="SVGID_1_" gradientUnits="userSpaceOnUse" x1="391.1843" y1="838.6262" x2="442.1987" y2="838.6262">
				<stop offset="0" style="stop-color:#424242"></stop>
				<stop offset="0.7129" style="stop-color:#353535"></stop>
				<stop offset="1" style="stop-color:#2F2E2E"></stop>
			</linearGradient>
			<path style="fill:url(#SVGID_1_);" d="M440.662,859.229l-3.456-44.047h-41.029l-3.464,44.153
				c2.434,1.251,11.113,2.734,23.877,2.734C429.716,862.07,438.526,860.501,440.662,859.229z" data-index="1"></path>
			
				<linearGradient id="SVGID_00000083784918420172201370000014683469667768172689_" gradientUnits="userSpaceOnUse" x1="391.1843" y1="873.6514" x2="442.1989" y2="873.6514">
				<stop offset="0" style="stop-color:#424242"></stop>
				<stop offset="0.7129" style="stop-color:#353535"></stop>
				<stop offset="1" style="stop-color:#2F2E2E"></stop>
			</linearGradient>
			<path style="fill:url(#SVGID_00000083784918420172201370000014683469667768172689_);" d="M416.59,864.343
				c-6.9,0-13.395-0.44-18.291-1.237c-2.675-0.436-4.507-0.92-5.771-1.419l-1.344,17.13h0.113c1.19,3.856,12.103,6.876,25.395,6.876
				c13.292,0,24.205-3.02,25.395-6.876h0.113l-1.35-17.205c-1.267,0.526-3.158,1.036-5.968,1.494
				C429.985,863.903,423.49,864.343,416.59,864.343z" data-index="2"></path>
			<path style="fill:#FFFFFF;" d="M416.59,862.07c-12.764,0-21.443-1.483-23.877-2.734l-0.184,2.351
				c1.264,0.499,3.095,0.983,5.771,1.419c4.895,0.798,11.391,1.237,18.291,1.237c6.9,0,13.395-0.44,18.291-1.237
				c2.81-0.458,4.702-0.969,5.968-1.494l-0.187-2.381C438.526,860.501,429.716,862.07,416.59,862.07z" data-index="3"></path>
		</g>
		<g>
			
				<linearGradient id="SVGID_00000005948895616084296860000006824848392225350288_" gradientUnits="userSpaceOnUse" x1="466.8058" y1="873.6702" x2="517.8203" y2="873.6702">
				<stop offset="0" style="stop-color:#424242"></stop>
				<stop offset="0.7129" style="stop-color:#353535"></stop>
				<stop offset="1" style="stop-color:#2F2E2E"></stop>
			</linearGradient>
			<path style="fill:url(#SVGID_00000005948895616084296860000006824848392225350288_);" d="M492.313,864.343
				c-6.9,0-13.395-0.44-18.291-1.237c-2.743-0.447-4.604-0.944-5.87-1.457l-1.347,17.168h0.113
				c1.19,3.856,12.103,6.876,25.395,6.876c13.292,0,24.204-3.02,25.394-6.876h0.113l-1.347-17.168
				c-1.266,0.512-3.127,1.01-5.869,1.457C505.708,863.903,499.213,864.343,492.313,864.343z" data-index="4"></path>
			
				<linearGradient id="SVGID_00000127010665480435179940000014198866058509597572_" gradientUnits="userSpaceOnUse" x1="466.8058" y1="838.6262" x2="517.8201" y2="838.6262">
				<stop offset="0" style="stop-color:#424242"></stop>
				<stop offset="0.7129" style="stop-color:#353535"></stop>
				<stop offset="1" style="stop-color:#2F2E2E"></stop>
			</linearGradient>
			<path style="fill:url(#SVGID_00000127010665480435179940000014198866058509597572_);" d="M516.288,859.284l-3.46-44.101h-41.029
				l-3.46,44.101c2.291,1.262,11.033,2.786,23.975,2.786C505.254,862.07,513.997,860.545,516.288,859.284z" data-index="5"></path>
			<path style="fill:#FFFFFF;" d="M492.313,862.07c-12.942,0-21.684-1.525-23.975-2.786l-0.186,2.365
				c1.266,0.512,3.127,1.01,5.87,1.457c4.895,0.798,11.391,1.237,18.291,1.237c6.9,0,13.395-0.44,18.291-1.237
				c2.743-0.447,4.604-0.944,5.869-1.457l-0.185-2.365C513.997,860.545,505.254,862.07,492.313,862.07z" data-index="6"></path>
		</g>
		<g>
			
				<linearGradient id="SVGID_00000072267807950753211300000017169966999065327030_" gradientUnits="userSpaceOnUse" x1="604.1796" y1="838.6262" x2="655.194" y2="838.6262">
				<stop offset="0" style="stop-color:#424242"></stop>
				<stop offset="0.7129" style="stop-color:#353535"></stop>
				<stop offset="1" style="stop-color:#2F2E2E"></stop>
			</linearGradient>
			<path style="fill:url(#SVGID_00000072267807950753211300000017169966999065327030_);" d="M653.662,859.284l-3.46-44.101h-41.029
				l-3.46,44.101c2.291,1.262,11.033,2.786,23.975,2.786C642.629,862.07,651.371,860.545,653.662,859.284z" data-index="7"></path>
			
				<linearGradient id="SVGID_00000070833766047700908710000013772313236760980128_" gradientUnits="userSpaceOnUse" x1="604.1797" y1="873.6702" x2="655.1941" y2="873.6702">
				<stop offset="0" style="stop-color:#424242"></stop>
				<stop offset="0.7129" style="stop-color:#353535"></stop>
				<stop offset="1" style="stop-color:#2F2E2E"></stop>
			</linearGradient>
			<path style="fill:url(#SVGID_00000070833766047700908710000013772313236760980128_);" d="M629.687,864.343
				c-6.9,0-13.395-0.44-18.291-1.237c-2.743-0.447-4.604-0.944-5.869-1.457l-1.347,17.168h0.113
				c1.19,3.856,12.102,6.876,25.395,6.876c13.292,0,24.204-3.02,25.394-6.876h0.113l-1.347-17.168
				c-1.266,0.512-3.127,1.01-5.87,1.457C643.082,863.903,636.586,864.343,629.687,864.343z" data-index="8"></path>
			<path style="fill:#FFFFFF;" d="M629.687,862.07c-12.941,0-21.684-1.525-23.975-2.786l-0.186,2.365
				c1.266,0.512,3.127,1.01,5.869,1.457c4.895,0.798,11.391,1.237,18.291,1.237c6.9,0,13.395-0.44,18.291-1.237
				c2.743-0.447,4.604-0.944,5.87-1.457l-0.185-2.365C651.371,860.545,642.629,862.07,629.687,862.07z" data-index="9"></path>
		</g>
		<g>
			
				<linearGradient id="SVGID_00000099624714743759326850000017718207037887942540_" gradientUnits="userSpaceOnUse" x1="679.8011" y1="838.6262" x2="730.8155" y2="838.6262">
				<stop offset="0" style="stop-color:#424242"></stop>
				<stop offset="0.7129" style="stop-color:#353535"></stop>
				<stop offset="1" style="stop-color:#2F2E2E"></stop>
			</linearGradient>
			<path style="fill:url(#SVGID_00000099624714743759326850000017718207037887942540_);" d="M729.287,859.336l-3.464-44.153h-41.028
				l-3.456,44.047c2.136,1.271,10.946,2.84,24.072,2.84C718.174,862.07,726.853,860.587,729.287,859.336z" data-index="10"></path>
			
				<linearGradient id="SVGID_00000101062454838736394680000014525376315410246797_" gradientUnits="userSpaceOnUse" x1="679.8011" y1="873.6514" x2="730.8157" y2="873.6514">
				<stop offset="0" style="stop-color:#424242"></stop>
				<stop offset="0.7129" style="stop-color:#353535"></stop>
				<stop offset="1" style="stop-color:#2F2E2E"></stop>
			</linearGradient>
			<path style="fill:url(#SVGID_00000101062454838736394680000014525376315410246797_);" d="M705.41,864.343
				c-6.9,0-13.395-0.44-18.291-1.237c-2.81-0.458-4.702-0.969-5.968-1.494l-1.35,17.205h0.113c1.19,3.856,12.103,6.876,25.395,6.876
				c13.292,0,24.205-3.02,25.395-6.876h0.113l-1.344-17.13c-1.264,0.499-3.095,0.983-5.771,1.419
				C718.805,863.903,712.31,864.343,705.41,864.343z" data-index="11"></path>
			<path style="fill:#FFFFFF;" d="M705.41,862.07c-13.126,0-21.936-1.569-24.072-2.84l-0.187,2.381
				c1.267,0.526,3.158,1.036,5.968,1.494c4.895,0.798,11.391,1.237,18.291,1.237s13.395-0.44,18.291-1.237
				c2.675-0.436,4.507-0.92,5.771-1.419l-0.184-2.351C726.853,860.587,718.174,862.07,705.41,862.07z" data-index="12"></path>
		</g>
		
			<linearGradient id="SVGID_00000019656823498732522310000002811174289628450488_" gradientUnits="userSpaceOnUse" x1="6227.4814" y1="727.3751" x2="6258.1782" y2="727.3751" gradientTransform="matrix(-1 0 0 1 6642.5195 0)">
			<stop offset="6.610600e-04" style="stop-color:#B3B4B5"></stop>
			<stop offset="0.1016" style="stop-color:#C7C8C9"></stop>
			<stop offset="0.2301" style="stop-color:#DADADB"></stop>
			<stop offset="0.3631" style="stop-color:#E5E5E6"></stop>
			<stop offset="0.5066" style="stop-color:#E9E9EA"></stop>
			<stop offset="0.7028" style="stop-color:#E6E6E7"></stop>
			<stop offset="0.8453" style="stop-color:#DDDDDE"></stop>
			<stop offset="0.9704" style="stop-color:#CDCED0"></stop>
			<stop offset="1" style="stop-color:#C8C9CB"></stop>
		</linearGradient>
		<path style="fill:url(#SVGID_00000019656823498732522310000002811174289628450488_);" d="M384.341,772.258l30.697-12.264v-77.503
			l0,0c-4.993,0-9.442,3.151-11.1,7.861L384.341,772.258z" data-index="13"></path>
		
			<linearGradient id="SVGID_00000088852060358099840900000015807060427810170502_" gradientUnits="userSpaceOnUse" x1="6156.7417" y1="721.2434" x2="6192.3481" y2="721.2434" gradientTransform="matrix(-1 0 0 1 6642.5195 0)">
			<stop offset="6.610600e-04" style="stop-color:#B3B4B5"></stop>
			<stop offset="0.1016" style="stop-color:#C7C8C9"></stop>
			<stop offset="0.2301" style="stop-color:#DADADB"></stop>
			<stop offset="0.3631" style="stop-color:#E5E5E6"></stop>
			<stop offset="0.5066" style="stop-color:#E9E9EA"></stop>
			<stop offset="0.658" style="stop-color:#DEDEDF"></stop>
			<stop offset="1" style="stop-color:#C8C9CB"></stop>
		</linearGradient>
		<path style="fill:url(#SVGID_00000088852060358099840900000015807060427810170502_);" d="M485.778,759.995h-35.606v-77.503l0,0
			c4.993,0,9.442,3.151,11.1,7.861L485.778,759.995z" data-index="14"></path>
		
			<linearGradient id="SVGID_00000150080376752850265450000015646482311248570775_" gradientUnits="userSpaceOnUse" x1="6191.2197" y1="581.078" x2="6231.0122" y2="581.078" gradientTransform="matrix(-1 0 0 1 6642.5195 0)">
			<stop offset="6.610600e-04" style="stop-color:#B3B4B5"></stop>
			<stop offset="0.1016" style="stop-color:#C7C8C9"></stop>
			<stop offset="0.2301" style="stop-color:#DADADB"></stop>
			<stop offset="0.3631" style="stop-color:#E5E5E6"></stop>
			<stop offset="0.5066" style="stop-color:#E9E9EA"></stop>
			<stop offset="0.7028" style="stop-color:#E6E6E7"></stop>
			<stop offset="0.8453" style="stop-color:#DDDDDE"></stop>
			<stop offset="0.9704" style="stop-color:#CDCED0"></stop>
			<stop offset="1" style="stop-color:#C8C9CB"></stop>
		</linearGradient>
		<polygon style="fill:url(#SVGID_00000150080376752850265450000015646482311248570775_);" points="451.3,481.249 451.3,664.048 
			445.997,680.907 419.105,680.907 413.802,664.048 413.802,481.249 		"></polygon>
		
			<linearGradient id="SVGID_00000085931018600736832960000008963420859708720768_" gradientUnits="userSpaceOnUse" x1="6196.6304" y1="715.7026" x2="6224.939" y2="715.7026" gradientTransform="matrix(-1 0 0 1 6642.5195 0)">
			<stop offset="0" style="stop-color:#424242"></stop>
			<stop offset="0.7129" style="stop-color:#353535"></stop>
			<stop offset="1" style="stop-color:#2F2E2E"></stop>
		</linearGradient>
		<polygon style="fill:url(#SVGID_00000085931018600736832960000008963420859708720768_);" points="419.213,750.498 
			445.889,750.498 445.889,680.907 419.213,680.907 		"></polygon>
		
			<linearGradient id="SVGID_00000166633284546889617150000006256626887361585319_" gradientUnits="userSpaceOnUse" x1="6185.8086" y1="414.0588" x2="6236.9707" y2="414.0588" gradientTransform="matrix(-1 0 0 1 6642.5195 0)">
			<stop offset="6.610600e-04" style="stop-color:#B3B4B5"></stop>
			<stop offset="0.1016" style="stop-color:#C7C8C9"></stop>
			<stop offset="0.2301" style="stop-color:#DADADB"></stop>
			<stop offset="0.3631" style="stop-color:#E5E5E6"></stop>
			<stop offset="0.5066" style="stop-color:#E9E9EA"></stop>
			<stop offset="0.7028" style="stop-color:#E6E6E7"></stop>
			<stop offset="0.8453" style="stop-color:#DDDDDE"></stop>
			<stop offset="0.9704" style="stop-color:#CDCED0"></stop>
			<stop offset="1" style="stop-color:#C8C9CB"></stop>
		</linearGradient>
		<path style="fill:url(#SVGID_00000166633284546889617150000006256626887361585319_);" d="M432.605,346.435L432.605,346.435
			c13.314,0,24.106,48.668,24.106,61.981v52.89l-5.303,20.375h-37.606l-5.303-20.375v-52.89
			C408.499,395.103,419.292,346.435,432.605,346.435z" data-index="15"></path>
		
			<rect x="413.802" y="481.682" transform="matrix(-1 -1.224647e-16 1.224647e-16 -1 865.2099 981.0343)" style="fill:#9E9FA0;" width="37.606" height="17.67"></rect>
		
			<rect x="451.3" y="499.352" transform="matrix(-1 -1.224647e-16 1.224647e-16 -1 935.0418 1007.0253)" style="fill:#7C7A7B;" width="32.441" height="8.321"></rect>
		
			<rect x="451.3" y="516.868" transform="matrix(-1 -1.224647e-16 1.224647e-16 -1 935.0418 1042.0575)" style="fill:#7C7A7B;" width="32.441" height="8.321"></rect>
		
			<rect x="451.3" y="603.33" transform="matrix(-1 -1.224647e-16 1.224647e-16 -1 935.0418 1214.9811)" style="fill:#7C7A7B;" width="32.441" height="8.321"></rect>
		
			<rect x="451.3" y="620.846" transform="matrix(-1 -1.224647e-16 1.224647e-16 -1 935.0418 1250.0133)" style="fill:#7C7A7B;" width="32.441" height="8.321"></rect>
		<polygon style="opacity:0.5;fill:#2F2E2E;" points="445.889,709.727 419.213,733.341 419.213,728.043 445.989,705.781 		"></polygon>
		<path style="opacity:0.2;fill:#2F2E2E;" d="M415.342,736.767l-19.301,17.176c0,0-8.507,8.374-11.7,17.533l3.521-13.934
			l27.48-24.741V736.767z" data-index="16"></path>
		<path style="opacity:0.2;fill:#2F2E2E;" d="M462.771,694.766l-12.423,11.015v-3.03l11.717-10.142
			C462.065,692.608,462.406,693.578,462.771,694.766z" data-index="17"></path>
		
			<linearGradient id="SVGID_00000103948095943880722000000005606986343813754813_" gradientUnits="userSpaceOnUse" x1="706.9765" y1="727.3751" x2="737.6735" y2="727.3751">
			<stop offset="6.610600e-04" style="stop-color:#B3B4B5"></stop>
			<stop offset="0.1016" style="stop-color:#C7C8C9"></stop>
			<stop offset="0.2301" style="stop-color:#DADADB"></stop>
			<stop offset="0.3631" style="stop-color:#E5E5E6"></stop>
			<stop offset="0.5066" style="stop-color:#E9E9EA"></stop>
			<stop offset="0.7028" style="stop-color:#E6E6E7"></stop>
			<stop offset="0.8453" style="stop-color:#DDDDDE"></stop>
			<stop offset="0.9704" style="stop-color:#CDCED0"></stop>
			<stop offset="1" style="stop-color:#C8C9CB"></stop>
		</linearGradient>
		<path style="fill:url(#SVGID_00000103948095943880722000000005606986343813754813_);" d="M737.674,772.258l-30.697-12.264v-77.503
			h0c4.993,0,9.442,3.151,11.099,7.861L737.674,772.258z" data-index="18"></path>
		
			<linearGradient id="SVGID_00000036962106873918599600000005446570048441581224_" gradientUnits="userSpaceOnUse" x1="636.237" y1="721.2434" x2="671.8433" y2="721.2434">
			<stop offset="6.610600e-04" style="stop-color:#B3B4B5"></stop>
			<stop offset="0.1016" style="stop-color:#C7C8C9"></stop>
			<stop offset="0.2301" style="stop-color:#DADADB"></stop>
			<stop offset="0.3631" style="stop-color:#E5E5E6"></stop>
			<stop offset="0.5066" style="stop-color:#E9E9EA"></stop>
			<stop offset="0.658" style="stop-color:#DEDEDF"></stop>
			<stop offset="1" style="stop-color:#C8C9CB"></stop>
		</linearGradient>
		<path style="fill:url(#SVGID_00000036962106873918599600000005446570048441581224_);" d="M636.237,759.995h35.606v-77.503h0
			c-4.993,0-9.442,3.151-11.099,7.861L636.237,759.995z" data-index="19"></path>
		
			<linearGradient id="SVGID_00000124139510567070043930000000689801602660748989_" gradientUnits="userSpaceOnUse" x1="670.7146" y1="581.078" x2="710.5071" y2="581.078">
			<stop offset="6.610600e-04" style="stop-color:#B3B4B5"></stop>
			<stop offset="0.1016" style="stop-color:#C7C8C9"></stop>
			<stop offset="0.2301" style="stop-color:#DADADB"></stop>
			<stop offset="0.3631" style="stop-color:#E5E5E6"></stop>
			<stop offset="0.5066" style="stop-color:#E9E9EA"></stop>
			<stop offset="0.7028" style="stop-color:#E6E6E7"></stop>
			<stop offset="0.8453" style="stop-color:#DDDDDE"></stop>
			<stop offset="0.9704" style="stop-color:#CDCED0"></stop>
			<stop offset="1" style="stop-color:#C8C9CB"></stop>
		</linearGradient>
		<polygon style="fill:url(#SVGID_00000124139510567070043930000000689801602660748989_);" points="670.715,481.249 
			670.715,664.048 676.018,680.907 702.91,680.907 708.213,664.048 708.213,481.249 		"></polygon>
		
			<linearGradient id="SVGID_00000102546935345916727080000018328631356421623984_" gradientUnits="userSpaceOnUse" x1="676.1254" y1="715.7026" x2="704.4343" y2="715.7026">
			<stop offset="0" style="stop-color:#424242"></stop>
			<stop offset="0.7129" style="stop-color:#353535"></stop>
			<stop offset="1" style="stop-color:#2F2E2E"></stop>
		</linearGradient>
		
			<rect x="676.125" y="680.907" style="fill:url(#SVGID_00000102546935345916727080000018328631356421623984_);" width="26.677" height="69.592"></rect>
		
			<linearGradient id="SVGID_00000168084519238430843640000007199146749879998123_" gradientUnits="userSpaceOnUse" x1="665.3037" y1="414.0588" x2="716.4658" y2="414.0588">
			<stop offset="6.610600e-04" style="stop-color:#B3B4B5"></stop>
			<stop offset="0.1016" style="stop-color:#C7C8C9"></stop>
			<stop offset="0.2301" style="stop-color:#DADADB"></stop>
			<stop offset="0.3631" style="stop-color:#E5E5E6"></stop>
			<stop offset="0.5066" style="stop-color:#E9E9EA"></stop>
			<stop offset="0.7028" style="stop-color:#E6E6E7"></stop>
			<stop offset="0.8453" style="stop-color:#DDDDDE"></stop>
			<stop offset="0.9704" style="stop-color:#CDCED0"></stop>
			<stop offset="1" style="stop-color:#C8C9CB"></stop>
		</linearGradient>
		<path style="fill:url(#SVGID_00000168084519238430843640000007199146749879998123_);" d="M689.41,346.435L689.41,346.435
			c-13.313,0-24.106,48.668-24.106,61.981v52.89l5.303,20.375h37.606l5.303-20.375v-52.89
			C713.516,395.103,702.723,346.435,689.41,346.435z" data-index="20"></path>
		<rect x="670.607" y="481.682" style="fill:#9E9FA0;" width="37.606" height="17.67"></rect>
		<path style="opacity:0.1;fill:#2F2E2E;" d="M689.41,346.435c-13.314,0-24.106,48.668-24.106,61.981v52.891l5.303,20.375h0.108
			v182.365l5.303,16.859h0.108v69.592h26.677v-69.592h0.108l5.303-16.859V481.682l5.303-20.375v-52.891
			C713.516,395.103,702.723,346.435,689.41,346.435z" data-index="21"></path>
		
			<linearGradient id="SVGID_00000039815591544045522290000014279216882215094954_" gradientUnits="userSpaceOnUse" x1="483.7267" y1="567.4546" x2="638.2732" y2="567.4546">
			<stop offset="0" style="stop-color:#D39357"></stop>
			<stop offset="0.279" style="stop-color:#D08746"></stop>
			<stop offset="0.5032" style="stop-color:#CE823E"></stop>
			<stop offset="0.9936" style="stop-color:#9F5B3B"></stop>
		</linearGradient>
		
			<rect x="483.727" y="404.948" style="fill:url(#SVGID_00000039815591544045522290000014279216882215094954_);" width="154.546" height="325.013"></rect>
		<path style="fill:#E9E464;" d="M559.773,243.884l-80.781,178.693c-0.316,1.388-0.631,2.778-0.947,4.177l-0.413,1.897
			c-0.061,0.277,0.069,0.566,0.324,0.691c0.649,0.317,2.22,0.813,5.771,0.906c11.782,0.336,25.573,0.533,40.674,0.533
			c6.142,0,12.107-0.032,17.841-0.092c5.603,0.06,11.461,0.092,17.532,0.092c47.256,0,84.182-1.877,84.182-3.98
			C619.425,317.954,591.396,243.884,559.773,243.884z" data-index="22"></path>
		
			<linearGradient id="SVGID_00000083053091176277730420000015682419371500863406_" gradientUnits="userSpaceOnUse" x1="478.9917" y1="329.7566" x2="642.2954" y2="329.7566">
			<stop offset="0" style="stop-color:#D39357"></stop>
			<stop offset="0.2553" style="stop-color:#D08746"></stop>
			<stop offset="0.4604" style="stop-color:#CE823E"></stop>
			<stop offset="0.9936" style="stop-color:#9F5B3B"></stop>
		</linearGradient>
		<path style="fill:url(#SVGID_00000083053091176277730420000015682419371500863406_);" d="M478.992,422.577
			c1.536,0.048,3.115,0.095,4.735,0.138c11.636,0.312,25.399,0.49,40.674,0.49c6.134,0,12.064-0.029,17.743-0.083
			c-0.057-0.001-0.113-0.001-0.17-0.002c5.658,0.056,11.603,0.085,17.8,0.085c47.256,0,82.522-1.704,82.522-3.806
			c-3.978-17.652-8.005-66.971-12.094-82.634c-21.127-80.918-43.934-100.457-70.428-100.457c-26.568,0-47.695,19.833-68.318,101.137
			C491.455,337.445,480.822,392.279,478.992,422.577z M483.727,420.636l0.009,0.001l-0.006-0.001L483.727,420.636z M524.331,422.843
			c0.085,0.002,0.17,0.004,0.254,0.006C524.501,422.846,524.416,422.845,524.331,422.843z M484.51,420.746
			c0.032,0.004,0.064,0.009,0.097,0.013C484.574,420.754,484.542,420.75,484.51,420.746z M487.418,421.083
			c0.049,0.005,0.099,0.01,0.149,0.015C487.517,421.093,487.468,421.088,487.418,421.083z M488.602,421.198l0.008,0.001
			L488.602,421.198z M489.798,421.306l0.016,0.001L489.798,421.306z M490.989,421.404c0.051,0.004,0.102,0.008,0.153,0.012
			C491.091,421.413,491.039,421.409,490.989,421.404z M492.372,421.511c0.009,0.001,0.017,0.001,0.026,0.002
			C492.389,421.513,492.38,421.512,492.372,421.511z M493.783,421.612c0.005,0,0.009,0.001,0.009,0.001
			S493.787,421.613,493.783,421.612z M495.142,421.703c0.075,0.005,0.149,0.01,0.224,0.014
			C495.292,421.713,495.217,421.708,495.142,421.703z M496.706,421.802c0.032,0.002,0.063,0.004,0.095,0.006
			C496.769,421.805,496.738,421.803,496.706,421.802z M499.917,421.983c0.073,0.004,0.147,0.008,0.221,0.012
			C500.064,421.991,499.991,421.987,499.917,421.983z M501.653,422.072c0.039,0.002,0.078,0.004,0.117,0.006
			C501.731,422.076,501.692,422.074,501.653,422.072z M505.259,422.239c0.068,0.003,0.137,0.006,0.205,0.009
			C505.396,422.245,505.327,422.242,505.259,422.239z M507.16,422.319c0.042,0.002,0.083,0.004,0.125,0.005
			C507.244,422.322,507.203,422.32,507.16,422.319z M511.105,422.468c0.085,0.003,0.17,0.006,0.255,0.009
			C511.275,422.474,511.19,422.471,511.105,422.468z M513.176,422.539c0.052,0.002,0.104,0.004,0.156,0.005
			C513.28,422.542,513.228,422.54,513.176,422.539z M517.477,422.67c0.083,0.002,0.167,0.005,0.25,0.007
			C517.643,422.675,517.56,422.672,517.477,422.67z M519.737,422.732c0.041,0.001,0.082,0.002,0.122,0.003
			C519.819,422.734,519.778,422.733,519.737,422.732z M539.345,423.092c0.109,0.001,0.219,0.002,0.329,0.004
			C539.564,423.094,539.454,423.093,539.345,423.092z M526.703,422.893c0.061,0.001,0.121,0.002,0.182,0.004
			C526.825,422.896,526.764,422.895,526.703,422.893z M531.654,422.984c0.073,0.001,0.146,0.002,0.22,0.004
			C531.8,422.987,531.727,422.986,531.654,422.984z M534.162,423.024c0.058,0.001,0.116,0.002,0.175,0.003
			C534.278,423.026,534.22,423.025,534.162,423.024z" data-index="23"></path>
		<path style="fill:#E9E464;" d="M638.207,575.036c-0.609,2.075-33.687,3.748-77.879,3.748c-5.849,0-11.461-0.03-16.802-0.085
			c0.054,0,0.107,0.001,0.161,0.002c-5.361,0.054-10.958,0.083-16.748,0.083c-14.418,0-27.409-0.178-38.393-0.49
			c-1.529-0.043-3.019-0.089-4.469-0.138c-0.298,1.388-0.148,3.024-0.445,4.424l-0.051,2.248c-0.057,0.277,0.065,0.566,0.306,0.691
			c0.613,0.317,1.308,0.215,4.66,0.308c11.121,0.336,24.139,0.533,38.393,0.533c5.797,0,11.427-0.032,16.84-0.092
			c5.288,0.06,10.818,0.092,16.548,0.092c44.605,0,78.229-1.678,78.229-3.78C638.032,580.111,638.736,577.468,638.207,575.036z" data-index="24"></path>
		
			<linearGradient id="SVGID_00000173119230291991071840000003738067383876872588_" gradientUnits="userSpaceOnUse" x1="364.722" y1="688.5054" x2="561" y2="688.5054">
			<stop offset="0" style="stop-color:#FFFFFF"></stop>
			<stop offset="1" style="stop-color:#DEDEDF"></stop>
		</linearGradient>
		<path style="fill: url(&quot;#SVGID_00000173119230291991071840000003738067383876872588_&quot;); opacity: 1;" d="M561,864.762l-196.278-35.803
			l18.64-54.884c2.868-8.445,7.889-15.996,14.567-21.907l66.539-58.899c10.884-9.635,19.042-21.964,23.654-35.749l42.74-145.271
			L561,864.762z" data-index="25"></path>
		<polygon style="fill:#59595B;" points="364.722,828.959 561,864.762 561,827.68 376.401,794.57 		"></polygon>
		<path style="fill:#FFFFFF;" d="M400.645,757.876h25.253l68.199-64.276c5.524-5.253,9.187-12.164,10.433-19.685l11.493-69.365
			l14.838-92.302l-38.569,152.467c-2.609,10.314-8.498,19.501-16.781,26.177L400.645,757.876z" data-index="26"></path>
		
			<linearGradient id="SVGID_00000121261501656372146890000009899238058450681251_" gradientUnits="userSpaceOnUse" x1="593.26" y1="688.5054" x2="747.1252" y2="688.5054">
			<stop offset="0" style="stop-color:#DEDEDF"></stop>
			<stop offset="1" style="stop-color:#DEDEDF"></stop>
		</linearGradient>
		<path style="fill:url(#SVGID_00000121261501656372146890000009899238058450681251_);" d="M561,864.762l196.278-35.803
			l-18.64-54.884c-2.868-8.445-7.889-15.996-14.567-21.907l-66.539-58.899c-10.885-9.635-19.042-21.964-23.654-35.749
			l-41.224-145.271L561,864.762z" data-index="27"></path>
		
			<linearGradient id="SVGID_00000068663820173972554800000017411063565602351273_" gradientUnits="userSpaceOnUse" x1="561" y1="829.6656" x2="757.2779" y2="829.6656">
			<stop offset="0" style="stop-color:#424242"></stop>
			<stop offset="0.7129" style="stop-color:#353535"></stop>
			<stop offset="1" style="stop-color:#2F2E2E"></stop>
		</linearGradient>
		<polygon style="fill:url(#SVGID_00000068663820173972554800000017411063565602351273_);" points="757.278,828.959 561,864.762 
			561,827.68 745.599,794.57 		"></polygon>
		<path style="opacity:0.1;fill:#2F2E2E;" d="M525.628,712.598c0,2.506,0.018,4.945,0.047,7.346h-0.047v88.214v8.474v8.951
			c0,4.68,22.869,8.474,51.079,8.474s51.079-12.885,51.079-17.565v-8.951v-8.475v-79.123h-0.047c0.029-2.401,0.047-4.84,0.047-7.346
			c0-62.678-24.814-157.284-38.623-218.561h-40.617C534.735,555.314,525.628,649.92,525.628,712.598z" data-index="28"></path>
		<g>
			<polygon style="fill:#7A7B7B;" points="561,728.419 561,728.419 561,728.419 			"></polygon>
			<path style="fill:#FFFFFF;" d="M561,433.777c-10.408,0-20.088,24.435-28.162,60.26h56.323
				C581.088,458.212,571.408,433.777,561,433.777z" data-index="29"></path>
			<g>
				<path style="fill: rgb(239, 240, 241); opacity: 1;" d="M509.921,712.598c0,2.506,0.018,4.945,0.047,7.346h-0.047v88.214v8.474v8.951
					c0,4.68,22.869,8.474,51.079,8.474s51.079-3.794,51.079-8.474v-8.951v-8.474v-88.214h-0.047c0.029-2.401,0.047-4.84,0.047-7.346
					c0-62.678-9.108-157.284-22.917-218.561h-56.323C519.029,555.314,509.921,649.92,509.921,712.598z" data-index="30"></path>
				
					<linearGradient id="SVGID_00000083046889638471390370000000330840711483742128_" gradientUnits="userSpaceOnUse" x1="532.8384" y1="463.907" x2="668.8212" y2="463.907">
					<stop offset="0" style="stop-color:#7A7B7B"></stop>
					<stop offset="0.1464" style="stop-color:#747575"></stop>
					<stop offset="0.3475" style="stop-color:#626363"></stop>
					<stop offset="0.5803" style="stop-color:#454646"></stop>
					<stop offset="0.8348" style="stop-color:#1E1E1E"></stop>
					<stop offset="1" style="stop-color:#000000"></stop>
				</linearGradient>
				<path style="fill:url(#SVGID_00000083046889638471390370000000330840711483742128_);" d="M561,433.777
					c-10.408,0-20.088,24.435-28.162,60.26h56.323C581.088,458.212,571.408,433.777,561,433.777z" data-index="31"></path>
			</g>
			<g>
				<path style="fill:#B3B4B5;" d="M561,723.568c-28.21,0-51.079-3.794-51.079-8.474v17.425c0,4.68,22.869,8.474,51.079,8.474
					c28.21,0,51.079-3.794,51.079-8.474v-17.425C612.079,719.773,589.21,723.568,561,723.568z" data-index="32"></path>
				<path style="fill:#B3B4B5;" d="M561,728.043c-28.21,0-51.079-3.794-51.079-8.474v17.425c0,4.68,22.869,8.474,51.079,8.474
					c28.21,0,51.079-3.794,51.079-8.474v-17.425C612.079,724.249,589.21,728.043,561,728.043z" data-index="33"></path>
				
					<linearGradient id="SVGID_00000060748157730202144970000007007090986857548934_" gradientUnits="userSpaceOnUse" x1="509.9212" y1="729.961" x2="612.0787" y2="729.961">
					<stop offset="0" style="stop-color:#FFFFFF"></stop>
					<stop offset="1" style="stop-color:#DEDEDF"></stop>
				</linearGradient>
				<path style="fill:url(#SVGID_00000060748157730202144970000007007090986857548934_);" d="M561,725.486
					c-28.21,0-51.079-3.794-51.079-8.474v17.425c0,4.68,22.869,8.474,51.079,8.474c28.21,0,51.079-3.794,51.079-8.474v-17.425
					C612.079,721.692,589.21,725.486,561,725.486z" data-index="34"></path>
			</g>
			<g>
				<path style="fill:#B3B4B5;" d="M561,581.396c-23.808,0-43.108-3.202-43.108-7.152l-2.194,13.976
					c0,3.95,21.494,7.883,45.302,7.883s45.302-3.96,45.302-7.91l-2.194-13.948C604.108,578.194,584.808,581.396,561,581.396z" data-index="35"></path>
				<path style="fill:#B3B4B5;" d="M561,576.92c-23.808,0-42.783-2.936-42.783-6.886l-2.194,13.976
					c0,3.95,21.169,7.616,44.977,7.616s44.976-3.96,44.976-7.91l-2.194-13.948C603.782,573.719,584.808,576.92,561,576.92z" data-index="36"></path>
				
					<linearGradient id="SVGID_00000067213895058302967610000005812939164622040992_" gradientUnits="userSpaceOnUse" x1="515.6976" y1="583.0146" x2="606.3023" y2="583.0146">
					<stop offset="0" style="stop-color:#FFFFFF"></stop>
					<stop offset="1" style="stop-color:#DEDEDF"></stop>
				</linearGradient>
				<path style="fill:url(#SVGID_00000067213895058302967610000005812939164622040992_);" d="M561,579.238
					c-23.808,0-43.108-3.202-43.108-7.152l-2.194,13.976c0,3.95,21.494,7.883,45.302,7.883s45.302-3.96,45.302-7.91l-2.194-13.948
					C604.108,576.036,584.808,579.238,561,579.238z" data-index="37"></path>
			</g>
			<g>
				
					<linearGradient id="SVGID_00000141454545109059830000000008434513823291874442_" gradientUnits="userSpaceOnUse" x1="536.7574" y1="530.0584" x2="589.566" y2="530.0584">
					<stop offset="0" style="stop-color:#7A7B7B"></stop>
					<stop offset="0.1464" style="stop-color:#747575"></stop>
					<stop offset="0.3475" style="stop-color:#626363"></stop>
					<stop offset="0.5803" style="stop-color:#454646"></stop>
					<stop offset="0.8348" style="stop-color:#1E1E1E"></stop>
					<stop offset="1" style="stop-color:#000000"></stop>
				</linearGradient>
				<path style="fill:url(#SVGID_00000141454545109059830000000008434513823291874442_);" d="M536.757,547.868h8.385
					c0,0-1.458-31.818,13.488-31.818v-3.785C558.63,512.265,539.309,510.391,536.757,547.868z" data-index="38"></path>
				
					<linearGradient id="SVGID_00000116199864096867396130000004847264664647709852_" gradientUnits="userSpaceOnUse" x1="5698.7573" y1="530.0584" x2="5751.5664" y2="530.0584" gradientTransform="matrix(-1 0 0 1 6284 0)">
					<stop offset="0" style="stop-color:#7A7B7B"></stop>
					<stop offset="0.1464" style="stop-color:#747575"></stop>
					<stop offset="0.3475" style="stop-color:#626363"></stop>
					<stop offset="0.5803" style="stop-color:#454646"></stop>
					<stop offset="0.8348" style="stop-color:#1E1E1E"></stop>
					<stop offset="1" style="stop-color:#000000"></stop>
				</linearGradient>
				<path style="fill:url(#SVGID_00000116199864096867396130000004847264664647709852_);" d="M585.243,547.868h-8.385
					c0,0,1.458-31.818-13.488-31.818v-3.785C563.37,512.265,582.691,510.391,585.243,547.868z" data-index="39"></path>
			</g>
		</g>
		<rect x="638.273" y="499.352" style="fill:#7C7A7B;" width="32.441" height="8.321"></rect>
		<rect x="638.273" y="516.868" style="fill:#7C7A7B;" width="32.441" height="8.321"></rect>
		<rect x="638.273" y="603.33" style="fill:#7C7A7B;" width="32.441" height="8.321"></rect>
		<rect x="638.273" y="620.846" style="fill:#7C7A7B;" width="32.441" height="8.321"></rect>
		<polygon style="opacity:0.5;fill:#2F2E2E;" points="676.125,709.727 702.802,733.341 702.802,728.043 676.026,705.781 		"></polygon>
		<path style="opacity:0.2;fill:#2F2E2E;" d="M706.673,736.767l19.301,17.176c0,0,8.507,8.374,11.7,17.533l-3.521-13.934
			l-27.479-24.741V736.767z" data-index="40"></path>
		<path style="opacity:0.2;fill:#2F2E2E;" d="M659.244,694.766l12.423,11.015v-3.03l-11.717-10.142
			C659.95,692.608,659.609,693.578,659.244,694.766z" data-index="41"></path>
	</g>
	<g>
		<circle style="fill:#FFFFFF;" cx="474.231" cy="759.995" r="18.082"></circle>
		<circle style="fill:#76A39A;" cx="474.231" cy="759.995" r="15.411"></circle>
	</g>
</g>
</svg>